<?xml version="1.0" standalone="no"?>
<!DOCTYPE svg PUBLIC "-//W3C//DTD SVG 20010904//EN"
 "http://www.w3.org/TR/2001/REC-SVG-20010904/DTD/svg10.dtd">
<svg version="1.0" xmlns="http://www.w3.org/2000/svg"
 width="1024.000000pt" height="1229.000000pt" viewBox="0 0 1024.000000 1229.000000"
 preserveAspectRatio="xMidYMid meet">
<metadata>
Created by potrace 1.16, written by Peter Selinger 2001-2019
</metadata>
<g transform="translate(0.000000,1229.000000) scale(0.100000,-0.100000)"
fill="#000000" stroke="none">
<path d="M0 11930 l0 -360 5120 0 5120 0 0 360 0 360 -5120 0 -5120 0 0 -360z
m408 153 c68 -51 89 -130 53 -200 -19 -39 -67 -83 -89 -83 -5 0 -12 18 -14 40
-3 35 -1 41 24 51 34 14 42 37 33 97 l-6 47 -89 0 -89 0 -7 -52 c-7 -58 -3
-68 37 -92 26 -16 28 -20 14 -31 -13 -11 -20 -9 -40 10 -27 25 -33 17 -11 -12
7 -10 23 -18 35 -18 14 0 21 -6 21 -20 0 -31 -28 -24 -70 18 -80 80 -57 212
45 258 40 19 120 12 153 -13z m9652 -3 c18 -18 20 -33 20 -150 0 -186 34 -170
-360 -170 -394 0 -360 -16 -360 170 0 186 -34 170 360 170 307 0 321 -1 340
-20z"/>
<path d="M9386 12074 c-13 -12 -16 -40 -16 -143 0 -111 2 -130 18 -144 16 -15
55 -17 334 -17 292 0 316 1 331 18 14 15 17 41 17 144 0 108 -2 127 -18 141
-16 15 -55 17 -335 17 -274 0 -318 -2 -331 -16z"/>
<path d="M4995 7784 c-16 -2 -79 -9 -140 -15 -308 -30 -651 -138 -948 -296
-470 -252 -866 -659 -1107 -1141 -222 -445 -316 -953 -265 -1438 80 -759 456
-1417 1071 -1871 264 -194 654 -373 962 -439 l82 -17 0 -378 0 -379 33 6 c731
127 1360 423 1902 895 454 395 797 899 979 1439 81 243 123 435 151 704 61
591 -89 1225 -413 1746 -280 450 -680 797 -1132 982 -236 97 -466 157 -720
188 -87 11 -401 20 -455 14z m808 -998 c69 -32 123 -86 154 -153 23 -49 25
-64 21 -141 -6 -102 -27 -170 -88 -275 -92 -162 -287 -308 -447 -334 -30 -5
-34 -2 -72 56 -67 104 -86 175 -86 321 1 134 10 179 61 286 76 158 140 228
238 260 57 19 156 10 219 -20z m-1111 -19 c88 -51 169 -170 220 -322 33 -101
33 -279 0 -380 -31 -92 -82 -185 -102 -185 -34 0 -128 34 -202 72 -204 105
-355 326 -366 530 -4 80 -2 93 22 143 33 66 97 125 168 154 77 31 197 25 260
-12z m-762 -764 c163 -45 339 -177 432 -324 42 -65 91 -186 84 -204 -7 -19
-139 -82 -211 -101 -145 -38 -333 -26 -462 32 -82 36 -216 128 -248 170 -100
131 -61 327 80 410 76 44 203 50 325 17z m2447 -979 c115 -29 290 -127 346
-193 109 -130 56 -345 -106 -428 -183 -93 -522 34 -693 260 -50 67 -110 182
-120 234 -6 31 -5 32 62 66 83 41 124 55 218 73 82 15 207 10 293 -12z m-2137
-24 c84 -28 179 -77 186 -95 13 -34 -53 -185 -120 -274 -83 -110 -264 -228
-398 -260 -78 -18 -200 -14 -262 10 -102 38 -186 160 -186 268 0 160 196 325
440 371 79 15 267 4 340 -20z m638 -543 c103 -211 103 -395 2 -602 -68 -137
-112 -194 -180 -228 -50 -26 -63 -28 -135 -25 -90 5 -140 26 -205 84 -63 57
-90 123 -90 218 0 220 158 456 377 565 88 45 175 72 189 60 6 -5 25 -37 42
-72z m634 42 c146 -50 279 -140 356 -243 90 -119 142 -255 142 -372 0 -156
-139 -274 -323 -274 -134 0 -229 73 -308 235 -67 139 -87 303 -54 445 19 78
92 230 111 230 8 0 42 -10 76 -21z"/>
</g>
</svg>
